# 3ds Max Wavefront OBJ Exporter v0.99 - (c)2007 guruware
# File Created: 18.01.2021 18:16:33

mtllib techo.mtl

#
# object Prism001
#

v  33.4191 69.1710 0.1315
v  -31.5779 69.6575 -0.2565
v  -31.9597 36.5416 22.1755
v  33.0373 36.0552 22.5636
v  33.3067 36.1450 -22.4355
v  -31.6904 36.6315 -22.8236
v  -31.9590 35.9808 21.3476
v  -31.5854 68.6575 -0.2586
v  33.4116 68.1711 0.1295
v  33.0381 35.4944 21.7356
v  -31.6995 36.0674 -21.9980
v  33.2975 35.5809 -21.6099
# 12 vertices

vn 0.5663 0.8242 0.0050
vn -0.5539 0.8326 -0.0017
vn -0.5833 -0.1499 0.7983
vn 0.5714 -0.1585 0.8052
vn 0.5810 -0.1553 -0.7990
vn -0.5737 -0.1467 -0.8059
vn -0.5818 -0.7970 -0.1622
vn -0.9491 -0.3149 -0.0063
vn 0.9443 -0.3290 0.0050
vn 0.5717 -0.8056 -0.1553
vn -0.5837 -0.7976 0.1521
vn 0.5698 -0.8063 0.1590
# 12 vertex normals

vt 0.7421 0.1765 0.5000
vt 0.7421 0.8235 0.5000
vt 0.2660 0.8235 0.9482
vt 0.2660 0.1765 0.9482
vt 0.7340 0.1765 0.0518
vt 0.7340 0.8235 0.0518
vt 0.2579 0.8235 0.5000
vt 0.2579 0.1765 0.5000
vt 0.7421 0.8235 0.9317
vt 0.2723 0.8235 0.5000
vt 0.2723 0.1765 0.5000
vt 0.7421 0.1765 0.9317
vt 0.7277 0.8235 0.5000
vt 0.2579 0.8235 0.0683
vt 0.2579 0.1765 0.0683
vt 0.7277 0.1765 0.5000
vt 0.9482 0.2660 0.8235
vt 0.5000 0.7421 0.8235
vt 0.5000 0.7277 0.8235
vt 0.9317 0.2579 0.8235
vt 0.9482 0.1765 0.2660
vt 0.9482 0.8235 0.2660
vt 0.9317 0.8235 0.2579
vt 0.9317 0.1765 0.2579
vt 0.5000 0.7421 0.1765
vt 0.0518 0.2660 0.1765
vt 0.0683 0.2579 0.1765
vt 0.5000 0.7277 0.1765
vt 0.0518 0.8235 0.2660
vt 0.0518 0.1765 0.2660
vt 0.0683 0.1765 0.2579
vt 0.0683 0.8235 0.2579
vt 0.0518 0.2660 0.8235
vt 0.0683 0.2579 0.8235
vt 0.9482 0.2660 0.1765
vt 0.9317 0.2579 0.1765
# 36 texture coords

o Prism001
g Prism001
usemtl 02___Default
s 4
f 1/1/1 2/2/2 3/3/3 4/4/4 
s 8
f 5/5/5 6/6/6 2/7/2 1/8/1 
s 4
f 7/9/7 8/10/8 9/11/9 10/12/10 
s 8
f 8/13/8 11/14/11 12/15/12 9/16/9 
s 1
f 3/17/3 2/18/2 8/19/8 7/20/7 
s 2
f 4/21/4 3/22/3 7/23/7 10/24/10 
s 1
f 1/25/1 4/26/4 10/27/10 9/28/9 
s 2
f 6/29/6 5/30/5 12/31/12 11/32/11 
s 1
f 2/18/2 6/33/6 11/34/11 8/19/8 
f 5/35/5 1/25/1 9/28/9 12/36/12 
# 10 polygons

